<svg width="20" height="20" viewBox="0 0 20 20" fill="none" xmlns="http://www.w3.org/2000/svg">
<path fill-rule="evenodd" clip-rule="evenodd" d="M4.5 3.47059H15.5V2.52941H4.5V3.47059ZM2 4.9695H1.40724L1.54167 5.54681L4.04167 16.2832L4.1264 16.6471H4.5H15.5H15.8736L15.9583 16.2832L18.4583 5.54681L18.5928 4.9695H18H2ZM4.8736 15.7059L2.59275 5.91067H17.4072L15.1264 15.7059H4.8736ZM12.353 11C12.353 12.2995 11.2995 13.353 10 13.353C8.70055 13.353 7.64711 12.2995 7.64711 11C7.64711 9.70056 8.70055 8.64711 10 8.64711C11.2995 8.64711 12.353 9.70056 12.353 11ZM13.2942 11C13.2942 12.8193 11.8193 14.2942 10 14.2942C8.18076 14.2942 6.70593 12.8193 6.70593 11C6.70593 9.18076 8.18076 7.70593 10 7.70593C11.8193 7.70593 13.2942 9.18076 13.2942 11Z" fill="white"/>
</svg>
